<?xml version="1.0" encoding="utf-8" standalone="no"?>
<!DOCTYPE svg PUBLIC "-//W3C//DTD SVG 1.1//EN"
  "http://www.w3.org/Graphics/SVG/1.1/DTD/svg11.dtd">
<svg xmlns:xlink="http://www.w3.org/1999/xlink" width="460.8pt" height="345.6pt" viewBox="0 0 460.8 345.6" xmlns="http://www.w3.org/2000/svg" version="1.1">
 <metadata>
  <rdf:RDF xmlns:dc="http://purl.org/dc/elements/1.1/" xmlns:cc="http://creativecommons.org/ns#" xmlns:rdf="http://www.w3.org/1999/02/22-rdf-syntax-ns#">
   <cc:Work>
    <dc:type rdf:resource="http://purl.org/dc/dcmitype/StillImage"/>
    <dc:date>2025-03-18T12:59:16.794869</dc:date>
    <dc:format>image/svg+xml</dc:format>
    <dc:creator>
     <cc:Agent>
      <dc:title>Matplotlib v3.10.1, https://matplotlib.org/</dc:title>
     </cc:Agent>
    </dc:creator>
   </cc:Work>
  </rdf:RDF>
 </metadata>
 <defs>
  <style type="text/css">*{stroke-linejoin: round; stroke-linecap: butt}</style>
 </defs>
 <g id="figure_1">
  <g id="patch_1">
   <path d="M 0 345.6 
L 460.8 345.6 
L 460.8 0 
L 0 0 
z
" style="fill: #ffffff"/>
  </g>
  <g id="axes_1">
   <g id="patch_2">
    <path d="M 87.36 307.584 
L 100.887273 307.584 
L 100.887273 303.137684 
L 87.36 303.137684 
z
" clip-path="url(#p939f215f48)" style="fill: #1f77b4"/>
   </g>
   <g id="patch_3">
    <path d="M 100.887273 307.584 
L 114.414545 307.584 
L 114.414545 303.137684 
L 100.887273 303.137684 
z
" clip-path="url(#p939f215f48)" style="fill: #1f77b4"/>
   </g>
   <g id="patch_4">
    <path d="M 114.414545 307.584 
L 127.941818 307.584 
L 127.941818 280.906105 
L 114.414545 280.906105 
z
" clip-path="url(#p939f215f48)" style="fill: #1f77b4"/>
   </g>
   <g id="patch_5">
    <path d="M 127.941818 307.584 
L 141.469091 307.584 
L 141.469091 287.575579 
L 127.941818 287.575579 
z
" clip-path="url(#p939f215f48)" style="fill: #1f77b4"/>
   </g>
   <g id="patch_6">
    <path d="M 141.469091 307.584 
L 154.996364 307.584 
L 154.996364 252.005053 
L 141.469091 252.005053 
z
" clip-path="url(#p939f215f48)" style="fill: #1f77b4"/>
   </g>
   <g id="patch_7">
    <path d="M 154.996364 307.584 
L 168.523636 307.584 
L 168.523636 236.442947 
L 154.996364 236.442947 
z
" clip-path="url(#p939f215f48)" style="fill: #1f77b4"/>
   </g>
   <g id="patch_8">
    <path d="M 168.523636 307.584 
L 182.050909 307.584 
L 182.050909 234.219789 
L 168.523636 234.219789 
z
" clip-path="url(#p939f215f48)" style="fill: #1f77b4"/>
   </g>
   <g id="patch_9">
    <path d="M 182.050909 307.584 
L 195.578182 307.584 
L 195.578182 136.400842 
L 182.050909 136.400842 
z
" clip-path="url(#p939f215f48)" style="fill: #1f77b4"/>
   </g>
   <g id="patch_10">
    <path d="M 195.578182 307.584 
L 209.105455 307.584 
L 209.105455 118.615579 
L 195.578182 118.615579 
z
" clip-path="url(#p939f215f48)" style="fill: #1f77b4"/>
   </g>
   <g id="patch_11">
    <path d="M 209.105455 307.584 
L 222.632727 307.584 
L 222.632727 163.078737 
L 209.105455 163.078737 
z
" clip-path="url(#p939f215f48)" style="fill: #1f77b4"/>
   </g>
   <g id="patch_12">
    <path d="M 222.632727 307.584 
L 236.16 307.584 
L 236.16 54.144 
L 222.632727 54.144 
z
" clip-path="url(#p939f215f48)" style="fill: #1f77b4"/>
   </g>
   <g id="patch_13">
    <path d="M 236.16 307.584 
L 249.687273 307.584 
L 249.687273 58.590316 
L 236.16 58.590316 
z
" clip-path="url(#p939f215f48)" style="fill: #1f77b4"/>
   </g>
   <g id="patch_14">
    <path d="M 249.687273 307.584 
L 263.214545 307.584 
L 263.214545 100.830316 
L 249.687273 100.830316 
z
" clip-path="url(#p939f215f48)" style="fill: #1f77b4"/>
   </g>
   <g id="patch_15">
    <path d="M 263.214545 307.584 
L 276.741818 307.584 
L 276.741818 98.607158 
L 263.214545 98.607158 
z
" clip-path="url(#p939f215f48)" style="fill: #1f77b4"/>
   </g>
   <g id="patch_16">
    <path d="M 276.741818 307.584 
L 290.269091 307.584 
L 290.269091 111.946105 
L 276.741818 111.946105 
z
" clip-path="url(#p939f215f48)" style="fill: #1f77b4"/>
   </g>
   <g id="patch_17">
    <path d="M 290.269091 307.584 
L 303.796364 307.584 
L 303.796364 207.541895 
L 290.269091 207.541895 
z
" clip-path="url(#p939f215f48)" style="fill: #1f77b4"/>
   </g>
   <g id="patch_18">
    <path d="M 303.796364 307.584 
L 317.323636 307.584 
L 317.323636 185.310316 
L 303.796364 185.310316 
z
" clip-path="url(#p939f215f48)" style="fill: #1f77b4"/>
   </g>
   <g id="patch_19">
    <path d="M 317.323636 307.584 
L 330.850909 307.584 
L 330.850909 234.219789 
L 317.323636 234.219789 
z
" clip-path="url(#p939f215f48)" style="fill: #1f77b4"/>
   </g>
   <g id="patch_20">
    <path d="M 330.850909 307.584 
L 344.378182 307.584 
L 344.378182 287.575579 
L 330.850909 287.575579 
z
" clip-path="url(#p939f215f48)" style="fill: #1f77b4"/>
   </g>
   <g id="patch_21">
    <path d="M 344.378182 307.584 
L 357.905455 307.584 
L 357.905455 287.575579 
L 344.378182 287.575579 
z
" clip-path="url(#p939f215f48)" style="fill: #1f77b4"/>
   </g>
   <g id="patch_22">
    <path d="M 357.905455 307.584 
L 371.432727 307.584 
L 371.432727 300.914526 
L 357.905455 300.914526 
z
" clip-path="url(#p939f215f48)" style="fill: #1f77b4"/>
   </g>
   <g id="patch_23">
    <path d="M 371.432727 307.584 
L 384.96 307.584 
L 384.96 300.914526 
L 371.432727 300.914526 
z
" clip-path="url(#p939f215f48)" style="fill: #1f77b4"/>
   </g>
   <g id="matplotlib.axis_1">
    <g id="ytick_1">
     <g id="line2d_1">
      <defs>
       <path id="m43a48d3dd5" d="M 0 0 
L 3.5 0 
" style="stroke: #000000; stroke-width: 0.8"/>
      </defs>
      <g>
       <use xlink:href="#m43a48d3dd5" x="414.72" y="307.584" style="stroke: #000000; stroke-width: 0.8"/>
      </g>
     </g>
     <g id="text_1">
      <!-- 0 -->
      <g transform="translate(421.72 311.383219) scale(0.1 -0.1)">
       <defs>
        <path id="DejaVuSans-30" d="M 2034 4250 
Q 1547 4250 1301 3770 
Q 1056 3291 1056 2328 
Q 1056 1369 1301 889 
Q 1547 409 2034 409 
Q 2525 409 2770 889 
Q 3016 1369 3016 2328 
Q 3016 3291 2770 3770 
Q 2525 4250 2034 4250 
z
M 2034 4750 
Q 2819 4750 3233 4129 
Q 3647 3509 3647 2328 
Q 3647 1150 3233 529 
Q 2819 -91 2034 -91 
Q 1250 -91 836 529 
Q 422 1150 422 2328 
Q 422 3509 836 4129 
Q 1250 4750 2034 4750 
z
" transform="scale(0.015625)"/>
       </defs>
       <use xlink:href="#DejaVuSans-30"/>
      </g>
     </g>
    </g>
    <g id="ytick_2">
     <g id="line2d_2">
      <g>
       <use xlink:href="#m43a48d3dd5" x="414.72" y="263.120842" style="stroke: #000000; stroke-width: 0.8"/>
      </g>
     </g>
     <g id="text_2">
      <!-- 20 -->
      <g transform="translate(421.72 266.920061) scale(0.1 -0.1)">
       <defs>
        <path id="DejaVuSans-32" d="M 1228 531 
L 3431 531 
L 3431 0 
L 469 0 
L 469 531 
Q 828 903 1448 1529 
Q 2069 2156 2228 2338 
Q 2531 2678 2651 2914 
Q 2772 3150 2772 3378 
Q 2772 3750 2511 3984 
Q 2250 4219 1831 4219 
Q 1534 4219 1204 4116 
Q 875 4013 500 3803 
L 500 4441 
Q 881 4594 1212 4672 
Q 1544 4750 1819 4750 
Q 2544 4750 2975 4387 
Q 3406 4025 3406 3419 
Q 3406 3131 3298 2873 
Q 3191 2616 2906 2266 
Q 2828 2175 2409 1742 
Q 1991 1309 1228 531 
z
" transform="scale(0.015625)"/>
       </defs>
       <use xlink:href="#DejaVuSans-32"/>
       <use xlink:href="#DejaVuSans-30" transform="translate(63.623047 0)"/>
      </g>
     </g>
    </g>
    <g id="ytick_3">
     <g id="line2d_3">
      <g>
       <use xlink:href="#m43a48d3dd5" x="414.72" y="218.657684" style="stroke: #000000; stroke-width: 0.8"/>
      </g>
     </g>
     <g id="text_3">
      <!-- 40 -->
      <g transform="translate(421.72 222.456903) scale(0.1 -0.1)">
       <defs>
        <path id="DejaVuSans-34" d="M 2419 4116 
L 825 1625 
L 2419 1625 
L 2419 4116 
z
M 2253 4666 
L 3047 4666 
L 3047 1625 
L 3713 1625 
L 3713 1100 
L 3047 1100 
L 3047 0 
L 2419 0 
L 2419 1100 
L 313 1100 
L 313 1709 
L 2253 4666 
z
" transform="scale(0.015625)"/>
       </defs>
       <use xlink:href="#DejaVuSans-34"/>
       <use xlink:href="#DejaVuSans-30" transform="translate(63.623047 0)"/>
      </g>
     </g>
    </g>
    <g id="ytick_4">
     <g id="line2d_4">
      <g>
       <use xlink:href="#m43a48d3dd5" x="414.72" y="174.194526" style="stroke: #000000; stroke-width: 0.8"/>
      </g>
     </g>
     <g id="text_4">
      <!-- 60 -->
      <g transform="translate(421.72 177.993745) scale(0.1 -0.1)">
       <defs>
        <path id="DejaVuSans-36" d="M 2113 2584 
Q 1688 2584 1439 2293 
Q 1191 2003 1191 1497 
Q 1191 994 1439 701 
Q 1688 409 2113 409 
Q 2538 409 2786 701 
Q 3034 994 3034 1497 
Q 3034 2003 2786 2293 
Q 2538 2584 2113 2584 
z
M 3366 4563 
L 3366 3988 
Q 3128 4100 2886 4159 
Q 2644 4219 2406 4219 
Q 1781 4219 1451 3797 
Q 1122 3375 1075 2522 
Q 1259 2794 1537 2939 
Q 1816 3084 2150 3084 
Q 2853 3084 3261 2657 
Q 3669 2231 3669 1497 
Q 3669 778 3244 343 
Q 2819 -91 2113 -91 
Q 1303 -91 875 529 
Q 447 1150 447 2328 
Q 447 3434 972 4092 
Q 1497 4750 2381 4750 
Q 2619 4750 2861 4703 
Q 3103 4656 3366 4563 
z
" transform="scale(0.015625)"/>
       </defs>
       <use xlink:href="#DejaVuSans-36"/>
       <use xlink:href="#DejaVuSans-30" transform="translate(63.623047 0)"/>
      </g>
     </g>
    </g>
    <g id="ytick_5">
     <g id="line2d_5">
      <g>
       <use xlink:href="#m43a48d3dd5" x="414.72" y="129.731368" style="stroke: #000000; stroke-width: 0.8"/>
      </g>
     </g>
     <g id="text_5">
      <!-- 80 -->
      <g transform="translate(421.72 133.530587) scale(0.1 -0.1)">
       <defs>
        <path id="DejaVuSans-38" d="M 2034 2216 
Q 1584 2216 1326 1975 
Q 1069 1734 1069 1313 
Q 1069 891 1326 650 
Q 1584 409 2034 409 
Q 2484 409 2743 651 
Q 3003 894 3003 1313 
Q 3003 1734 2745 1975 
Q 2488 2216 2034 2216 
z
M 1403 2484 
Q 997 2584 770 2862 
Q 544 3141 544 3541 
Q 544 4100 942 4425 
Q 1341 4750 2034 4750 
Q 2731 4750 3128 4425 
Q 3525 4100 3525 3541 
Q 3525 3141 3298 2862 
Q 3072 2584 2669 2484 
Q 3125 2378 3379 2068 
Q 3634 1759 3634 1313 
Q 3634 634 3220 271 
Q 2806 -91 2034 -91 
Q 1263 -91 848 271 
Q 434 634 434 1313 
Q 434 1759 690 2068 
Q 947 2378 1403 2484 
z
M 1172 3481 
Q 1172 3119 1398 2916 
Q 1625 2713 2034 2713 
Q 2441 2713 2670 2916 
Q 2900 3119 2900 3481 
Q 2900 3844 2670 4047 
Q 2441 4250 2034 4250 
Q 1625 4250 1398 4047 
Q 1172 3844 1172 3481 
z
" transform="scale(0.015625)"/>
       </defs>
       <use xlink:href="#DejaVuSans-38"/>
       <use xlink:href="#DejaVuSans-30" transform="translate(63.623047 0)"/>
      </g>
     </g>
    </g>
    <g id="ytick_6">
     <g id="line2d_6">
      <g>
       <use xlink:href="#m43a48d3dd5" x="414.72" y="85.268211" style="stroke: #000000; stroke-width: 0.8"/>
      </g>
     </g>
     <g id="text_6">
      <!-- 100 -->
      <g transform="translate(421.72 89.067429) scale(0.1 -0.1)">
       <defs>
        <path id="DejaVuSans-31" d="M 794 531 
L 1825 531 
L 1825 4091 
L 703 3866 
L 703 4441 
L 1819 4666 
L 2450 4666 
L 2450 531 
L 3481 531 
L 3481 0 
L 794 0 
L 794 531 
z
" transform="scale(0.015625)"/>
       </defs>
       <use xlink:href="#DejaVuSans-31"/>
       <use xlink:href="#DejaVuSans-30" transform="translate(63.623047 0)"/>
       <use xlink:href="#DejaVuSans-30" transform="translate(127.246094 0)"/>
      </g>
     </g>
    </g>
    <g id="text_7">
     <!-- Frequency (Monte Carlo) -->
     <g transform="translate(452.405937 236.075656) rotate(-90) scale(0.1 -0.1)">
      <defs>
       <path id="DejaVuSans-46" d="M 628 4666 
L 3309 4666 
L 3309 4134 
L 1259 4134 
L 1259 2759 
L 3109 2759 
L 3109 2228 
L 1259 2228 
L 1259 0 
L 628 0 
L 628 4666 
z
" transform="scale(0.015625)"/>
       <path id="DejaVuSans-72" d="M 2631 2963 
Q 2534 3019 2420 3045 
Q 2306 3072 2169 3072 
Q 1681 3072 1420 2755 
Q 1159 2438 1159 1844 
L 1159 0 
L 581 0 
L 581 3500 
L 1159 3500 
L 1159 2956 
Q 1341 3275 1631 3429 
Q 1922 3584 2338 3584 
Q 2397 3584 2469 3576 
Q 2541 3569 2628 3553 
L 2631 2963 
z
" transform="scale(0.015625)"/>
       <path id="DejaVuSans-65" d="M 3597 1894 
L 3597 1613 
L 953 1613 
Q 991 1019 1311 708 
Q 1631 397 2203 397 
Q 2534 397 2845 478 
Q 3156 559 3463 722 
L 3463 178 
Q 3153 47 2828 -22 
Q 2503 -91 2169 -91 
Q 1331 -91 842 396 
Q 353 884 353 1716 
Q 353 2575 817 3079 
Q 1281 3584 2069 3584 
Q 2775 3584 3186 3129 
Q 3597 2675 3597 1894 
z
M 3022 2063 
Q 3016 2534 2758 2815 
Q 2500 3097 2075 3097 
Q 1594 3097 1305 2825 
Q 1016 2553 972 2059 
L 3022 2063 
z
" transform="scale(0.015625)"/>
       <path id="DejaVuSans-71" d="M 947 1747 
Q 947 1113 1208 752 
Q 1469 391 1925 391 
Q 2381 391 2643 752 
Q 2906 1113 2906 1747 
Q 2906 2381 2643 2742 
Q 2381 3103 1925 3103 
Q 1469 3103 1208 2742 
Q 947 2381 947 1747 
z
M 2906 525 
Q 2725 213 2448 61 
Q 2172 -91 1784 -91 
Q 1150 -91 751 415 
Q 353 922 353 1747 
Q 353 2572 751 3078 
Q 1150 3584 1784 3584 
Q 2172 3584 2448 3432 
Q 2725 3281 2906 2969 
L 2906 3500 
L 3481 3500 
L 3481 -1331 
L 2906 -1331 
L 2906 525 
z
" transform="scale(0.015625)"/>
       <path id="DejaVuSans-75" d="M 544 1381 
L 544 3500 
L 1119 3500 
L 1119 1403 
Q 1119 906 1312 657 
Q 1506 409 1894 409 
Q 2359 409 2629 706 
Q 2900 1003 2900 1516 
L 2900 3500 
L 3475 3500 
L 3475 0 
L 2900 0 
L 2900 538 
Q 2691 219 2414 64 
Q 2138 -91 1772 -91 
Q 1169 -91 856 284 
Q 544 659 544 1381 
z
M 1991 3584 
L 1991 3584 
z
" transform="scale(0.015625)"/>
       <path id="DejaVuSans-6e" d="M 3513 2113 
L 3513 0 
L 2938 0 
L 2938 2094 
Q 2938 2591 2744 2837 
Q 2550 3084 2163 3084 
Q 1697 3084 1428 2787 
Q 1159 2491 1159 1978 
L 1159 0 
L 581 0 
L 581 3500 
L 1159 3500 
L 1159 2956 
Q 1366 3272 1645 3428 
Q 1925 3584 2291 3584 
Q 2894 3584 3203 3211 
Q 3513 2838 3513 2113 
z
" transform="scale(0.015625)"/>
       <path id="DejaVuSans-63" d="M 3122 3366 
L 3122 2828 
Q 2878 2963 2633 3030 
Q 2388 3097 2138 3097 
Q 1578 3097 1268 2742 
Q 959 2388 959 1747 
Q 959 1106 1268 751 
Q 1578 397 2138 397 
Q 2388 397 2633 464 
Q 2878 531 3122 666 
L 3122 134 
Q 2881 22 2623 -34 
Q 2366 -91 2075 -91 
Q 1284 -91 818 406 
Q 353 903 353 1747 
Q 353 2603 823 3093 
Q 1294 3584 2113 3584 
Q 2378 3584 2631 3529 
Q 2884 3475 3122 3366 
z
" transform="scale(0.015625)"/>
       <path id="DejaVuSans-79" d="M 2059 -325 
Q 1816 -950 1584 -1140 
Q 1353 -1331 966 -1331 
L 506 -1331 
L 506 -850 
L 844 -850 
Q 1081 -850 1212 -737 
Q 1344 -625 1503 -206 
L 1606 56 
L 191 3500 
L 800 3500 
L 1894 763 
L 2988 3500 
L 3597 3500 
L 2059 -325 
z
" transform="scale(0.015625)"/>
       <path id="DejaVuSans-20" transform="scale(0.015625)"/>
       <path id="DejaVuSans-28" d="M 1984 4856 
Q 1566 4138 1362 3434 
Q 1159 2731 1159 2009 
Q 1159 1288 1364 580 
Q 1569 -128 1984 -844 
L 1484 -844 
Q 1016 -109 783 600 
Q 550 1309 550 2009 
Q 550 2706 781 3412 
Q 1013 4119 1484 4856 
L 1984 4856 
z
" transform="scale(0.015625)"/>
       <path id="DejaVuSans-4d" d="M 628 4666 
L 1569 4666 
L 2759 1491 
L 3956 4666 
L 4897 4666 
L 4897 0 
L 4281 0 
L 4281 4097 
L 3078 897 
L 2444 897 
L 1241 4097 
L 1241 0 
L 628 0 
L 628 4666 
z
" transform="scale(0.015625)"/>
       <path id="DejaVuSans-6f" d="M 1959 3097 
Q 1497 3097 1228 2736 
Q 959 2375 959 1747 
Q 959 1119 1226 758 
Q 1494 397 1959 397 
Q 2419 397 2687 759 
Q 2956 1122 2956 1747 
Q 2956 2369 2687 2733 
Q 2419 3097 1959 3097 
z
M 1959 3584 
Q 2709 3584 3137 3096 
Q 3566 2609 3566 1747 
Q 3566 888 3137 398 
Q 2709 -91 1959 -91 
Q 1206 -91 779 398 
Q 353 888 353 1747 
Q 353 2609 779 3096 
Q 1206 3584 1959 3584 
z
" transform="scale(0.015625)"/>
       <path id="DejaVuSans-74" d="M 1172 4494 
L 1172 3500 
L 2356 3500 
L 2356 3053 
L 1172 3053 
L 1172 1153 
Q 1172 725 1289 603 
Q 1406 481 1766 481 
L 2356 481 
L 2356 0 
L 1766 0 
Q 1100 0 847 248 
Q 594 497 594 1153 
L 594 3053 
L 172 3053 
L 172 3500 
L 594 3500 
L 594 4494 
L 1172 4494 
z
" transform="scale(0.015625)"/>
       <path id="DejaVuSans-43" d="M 4122 4306 
L 4122 3641 
Q 3803 3938 3442 4084 
Q 3081 4231 2675 4231 
Q 1875 4231 1450 3742 
Q 1025 3253 1025 2328 
Q 1025 1406 1450 917 
Q 1875 428 2675 428 
Q 3081 428 3442 575 
Q 3803 722 4122 1019 
L 4122 359 
Q 3791 134 3420 21 
Q 3050 -91 2638 -91 
Q 1578 -91 968 557 
Q 359 1206 359 2328 
Q 359 3453 968 4101 
Q 1578 4750 2638 4750 
Q 3056 4750 3426 4639 
Q 3797 4528 4122 4306 
z
" transform="scale(0.015625)"/>
       <path id="DejaVuSans-61" d="M 2194 1759 
Q 1497 1759 1228 1600 
Q 959 1441 959 1056 
Q 959 750 1161 570 
Q 1363 391 1709 391 
Q 2188 391 2477 730 
Q 2766 1069 2766 1631 
L 2766 1759 
L 2194 1759 
z
M 3341 1997 
L 3341 0 
L 2766 0 
L 2766 531 
Q 2569 213 2275 61 
Q 1981 -91 1556 -91 
Q 1019 -91 701 211 
Q 384 513 384 1019 
Q 384 1609 779 1909 
Q 1175 2209 1959 2209 
L 2766 2209 
L 2766 2266 
Q 2766 2663 2505 2880 
Q 2244 3097 1772 3097 
Q 1472 3097 1187 3025 
Q 903 2953 641 2809 
L 641 3341 
Q 956 3463 1253 3523 
Q 1550 3584 1831 3584 
Q 2591 3584 2966 3190 
Q 3341 2797 3341 1997 
z
" transform="scale(0.015625)"/>
       <path id="DejaVuSans-6c" d="M 603 4863 
L 1178 4863 
L 1178 0 
L 603 0 
L 603 4863 
z
" transform="scale(0.015625)"/>
       <path id="DejaVuSans-29" d="M 513 4856 
L 1013 4856 
Q 1481 4119 1714 3412 
Q 1947 2706 1947 2009 
Q 1947 1309 1714 600 
Q 1481 -109 1013 -844 
L 513 -844 
Q 928 -128 1133 580 
Q 1338 1288 1338 2009 
Q 1338 2731 1133 3434 
Q 928 4138 513 4856 
z
" transform="scale(0.015625)"/>
      </defs>
      <use xlink:href="#DejaVuSans-46"/>
      <use xlink:href="#DejaVuSans-72" transform="translate(50.269531 0)"/>
      <use xlink:href="#DejaVuSans-65" transform="translate(89.132812 0)"/>
      <use xlink:href="#DejaVuSans-71" transform="translate(150.65625 0)"/>
      <use xlink:href="#DejaVuSans-75" transform="translate(214.132812 0)"/>
      <use xlink:href="#DejaVuSans-65" transform="translate(277.511719 0)"/>
      <use xlink:href="#DejaVuSans-6e" transform="translate(339.035156 0)"/>
      <use xlink:href="#DejaVuSans-63" transform="translate(402.414062 0)"/>
      <use xlink:href="#DejaVuSans-79" transform="translate(457.394531 0)"/>
      <use xlink:href="#DejaVuSans-20" transform="translate(516.574219 0)"/>
      <use xlink:href="#DejaVuSans-28" transform="translate(548.361328 0)"/>
      <use xlink:href="#DejaVuSans-4d" transform="translate(587.375 0)"/>
      <use xlink:href="#DejaVuSans-6f" transform="translate(673.654297 0)"/>
      <use xlink:href="#DejaVuSans-6e" transform="translate(734.835938 0)"/>
      <use xlink:href="#DejaVuSans-74" transform="translate(798.214844 0)"/>
      <use xlink:href="#DejaVuSans-65" transform="translate(837.423828 0)"/>
      <use xlink:href="#DejaVuSans-20" transform="translate(898.947266 0)"/>
      <use xlink:href="#DejaVuSans-43" transform="translate(930.734375 0)"/>
      <use xlink:href="#DejaVuSans-61" transform="translate(1000.558594 0)"/>
      <use xlink:href="#DejaVuSans-72" transform="translate(1061.837891 0)"/>
      <use xlink:href="#DejaVuSans-6c" transform="translate(1102.951172 0)"/>
      <use xlink:href="#DejaVuSans-6f" transform="translate(1130.734375 0)"/>
      <use xlink:href="#DejaVuSans-29" transform="translate(1191.916016 0)"/>
     </g>
    </g>
   </g>
   <g id="patch_24">
    <path d="M 57.6 307.584 
L 57.6 41.472 
" style="fill: none; stroke: #000000; stroke-width: 0.8; stroke-linejoin: miter; stroke-linecap: square"/>
   </g>
   <g id="patch_25">
    <path d="M 414.72 307.584 
L 414.72 41.472 
" style="fill: none; stroke: #000000; stroke-width: 0.8; stroke-linejoin: miter; stroke-linecap: square"/>
   </g>
   <g id="patch_26">
    <path d="M 57.6 307.584 
L 414.72 307.584 
" style="fill: none; stroke: #000000; stroke-width: 0.8; stroke-linejoin: miter; stroke-linecap: square"/>
   </g>
   <g id="patch_27">
    <path d="M 57.6 41.472 
L 414.72 41.472 
" style="fill: none; stroke: #000000; stroke-width: 0.8; stroke-linejoin: miter; stroke-linecap: square"/>
   </g>
  </g>
  <g id="axes_2">
   <g id="matplotlib.axis_2">
    <g id="xtick_1">
     <g id="line2d_7">
      <defs>
       <path id="m50460659b7" d="M 0 0 
L 0 3.5 
" style="stroke: #000000; stroke-width: 0.8"/>
      </defs>
      <g>
       <use xlink:href="#m50460659b7" x="67.183729" y="307.584" style="stroke: #000000; stroke-width: 0.8"/>
      </g>
     </g>
     <g id="text_8">
      <!-- 260 -->
      <g transform="translate(57.639979 322.182437) scale(0.1 -0.1)">
       <use xlink:href="#DejaVuSans-32"/>
       <use xlink:href="#DejaVuSans-36" transform="translate(63.623047 0)"/>
       <use xlink:href="#DejaVuSans-30" transform="translate(127.246094 0)"/>
      </g>
     </g>
    </g>
    <g id="xtick_2">
     <g id="line2d_8">
      <g>
       <use xlink:href="#m50460659b7" x="117.624407" y="307.584" style="stroke: #000000; stroke-width: 0.8"/>
      </g>
     </g>
     <g id="text_9">
      <!-- 270 -->
      <g transform="translate(108.080657 322.182437) scale(0.1 -0.1)">
       <defs>
        <path id="DejaVuSans-37" d="M 525 4666 
L 3525 4666 
L 3525 4397 
L 1831 0 
L 1172 0 
L 2766 4134 
L 525 4134 
L 525 4666 
z
" transform="scale(0.015625)"/>
       </defs>
       <use xlink:href="#DejaVuSans-32"/>
       <use xlink:href="#DejaVuSans-37" transform="translate(63.623047 0)"/>
       <use xlink:href="#DejaVuSans-30" transform="translate(127.246094 0)"/>
      </g>
     </g>
    </g>
    <g id="xtick_3">
     <g id="line2d_9">
      <g>
       <use xlink:href="#m50460659b7" x="168.065085" y="307.584" style="stroke: #000000; stroke-width: 0.8"/>
      </g>
     </g>
     <g id="text_10">
      <!-- 280 -->
      <g transform="translate(158.521335 322.182437) scale(0.1 -0.1)">
       <use xlink:href="#DejaVuSans-32"/>
       <use xlink:href="#DejaVuSans-38" transform="translate(63.623047 0)"/>
       <use xlink:href="#DejaVuSans-30" transform="translate(127.246094 0)"/>
      </g>
     </g>
    </g>
    <g id="xtick_4">
     <g id="line2d_10">
      <g>
       <use xlink:href="#m50460659b7" x="218.505763" y="307.584" style="stroke: #000000; stroke-width: 0.8"/>
      </g>
     </g>
     <g id="text_11">
      <!-- 290 -->
      <g transform="translate(208.962013 322.182437) scale(0.1 -0.1)">
       <defs>
        <path id="DejaVuSans-39" d="M 703 97 
L 703 672 
Q 941 559 1184 500 
Q 1428 441 1663 441 
Q 2288 441 2617 861 
Q 2947 1281 2994 2138 
Q 2813 1869 2534 1725 
Q 2256 1581 1919 1581 
Q 1219 1581 811 2004 
Q 403 2428 403 3163 
Q 403 3881 828 4315 
Q 1253 4750 1959 4750 
Q 2769 4750 3195 4129 
Q 3622 3509 3622 2328 
Q 3622 1225 3098 567 
Q 2575 -91 1691 -91 
Q 1453 -91 1209 -44 
Q 966 3 703 97 
z
M 1959 2075 
Q 2384 2075 2632 2365 
Q 2881 2656 2881 3163 
Q 2881 3666 2632 3958 
Q 2384 4250 1959 4250 
Q 1534 4250 1286 3958 
Q 1038 3666 1038 3163 
Q 1038 2656 1286 2365 
Q 1534 2075 1959 2075 
z
" transform="scale(0.015625)"/>
       </defs>
       <use xlink:href="#DejaVuSans-32"/>
       <use xlink:href="#DejaVuSans-39" transform="translate(63.623047 0)"/>
       <use xlink:href="#DejaVuSans-30" transform="translate(127.246094 0)"/>
      </g>
     </g>
    </g>
    <g id="xtick_5">
     <g id="line2d_11">
      <g>
       <use xlink:href="#m50460659b7" x="268.946441" y="307.584" style="stroke: #000000; stroke-width: 0.8"/>
      </g>
     </g>
     <g id="text_12">
      <!-- 300 -->
      <g transform="translate(259.402691 322.182437) scale(0.1 -0.1)">
       <defs>
        <path id="DejaVuSans-33" d="M 2597 2516 
Q 3050 2419 3304 2112 
Q 3559 1806 3559 1356 
Q 3559 666 3084 287 
Q 2609 -91 1734 -91 
Q 1441 -91 1130 -33 
Q 819 25 488 141 
L 488 750 
Q 750 597 1062 519 
Q 1375 441 1716 441 
Q 2309 441 2620 675 
Q 2931 909 2931 1356 
Q 2931 1769 2642 2001 
Q 2353 2234 1838 2234 
L 1294 2234 
L 1294 2753 
L 1863 2753 
Q 2328 2753 2575 2939 
Q 2822 3125 2822 3475 
Q 2822 3834 2567 4026 
Q 2313 4219 1838 4219 
Q 1578 4219 1281 4162 
Q 984 4106 628 3988 
L 628 4550 
Q 988 4650 1302 4700 
Q 1616 4750 1894 4750 
Q 2613 4750 3031 4423 
Q 3450 4097 3450 3541 
Q 3450 3153 3228 2886 
Q 3006 2619 2597 2516 
z
" transform="scale(0.015625)"/>
       </defs>
       <use xlink:href="#DejaVuSans-33"/>
       <use xlink:href="#DejaVuSans-30" transform="translate(63.623047 0)"/>
       <use xlink:href="#DejaVuSans-30" transform="translate(127.246094 0)"/>
      </g>
     </g>
    </g>
    <g id="xtick_6">
     <g id="line2d_12">
      <g>
       <use xlink:href="#m50460659b7" x="319.387119" y="307.584" style="stroke: #000000; stroke-width: 0.8"/>
      </g>
     </g>
     <g id="text_13">
      <!-- 310 -->
      <g transform="translate(309.843369 322.182437) scale(0.1 -0.1)">
       <use xlink:href="#DejaVuSans-33"/>
       <use xlink:href="#DejaVuSans-31" transform="translate(63.623047 0)"/>
       <use xlink:href="#DejaVuSans-30" transform="translate(127.246094 0)"/>
      </g>
     </g>
    </g>
    <g id="xtick_7">
     <g id="line2d_13">
      <g>
       <use xlink:href="#m50460659b7" x="369.827797" y="307.584" style="stroke: #000000; stroke-width: 0.8"/>
      </g>
     </g>
     <g id="text_14">
      <!-- 320 -->
      <g transform="translate(360.284047 322.182437) scale(0.1 -0.1)">
       <use xlink:href="#DejaVuSans-33"/>
       <use xlink:href="#DejaVuSans-32" transform="translate(63.623047 0)"/>
       <use xlink:href="#DejaVuSans-30" transform="translate(127.246094 0)"/>
      </g>
     </g>
    </g>
    <g id="text_15">
     <!-- Number of cells in state $C$ -->
     <g transform="translate(171.36 335.860562) scale(0.1 -0.1)">
      <defs>
       <path id="DejaVuSans-4e" d="M 628 4666 
L 1478 4666 
L 3547 763 
L 3547 4666 
L 4159 4666 
L 4159 0 
L 3309 0 
L 1241 3903 
L 1241 0 
L 628 0 
L 628 4666 
z
" transform="scale(0.015625)"/>
       <path id="DejaVuSans-6d" d="M 3328 2828 
Q 3544 3216 3844 3400 
Q 4144 3584 4550 3584 
Q 5097 3584 5394 3201 
Q 5691 2819 5691 2113 
L 5691 0 
L 5113 0 
L 5113 2094 
Q 5113 2597 4934 2840 
Q 4756 3084 4391 3084 
Q 3944 3084 3684 2787 
Q 3425 2491 3425 1978 
L 3425 0 
L 2847 0 
L 2847 2094 
Q 2847 2600 2669 2842 
Q 2491 3084 2119 3084 
Q 1678 3084 1418 2786 
Q 1159 2488 1159 1978 
L 1159 0 
L 581 0 
L 581 3500 
L 1159 3500 
L 1159 2956 
Q 1356 3278 1631 3431 
Q 1906 3584 2284 3584 
Q 2666 3584 2933 3390 
Q 3200 3197 3328 2828 
z
" transform="scale(0.015625)"/>
       <path id="DejaVuSans-62" d="M 3116 1747 
Q 3116 2381 2855 2742 
Q 2594 3103 2138 3103 
Q 1681 3103 1420 2742 
Q 1159 2381 1159 1747 
Q 1159 1113 1420 752 
Q 1681 391 2138 391 
Q 2594 391 2855 752 
Q 3116 1113 3116 1747 
z
M 1159 2969 
Q 1341 3281 1617 3432 
Q 1894 3584 2278 3584 
Q 2916 3584 3314 3078 
Q 3713 2572 3713 1747 
Q 3713 922 3314 415 
Q 2916 -91 2278 -91 
Q 1894 -91 1617 61 
Q 1341 213 1159 525 
L 1159 0 
L 581 0 
L 581 4863 
L 1159 4863 
L 1159 2969 
z
" transform="scale(0.015625)"/>
       <path id="DejaVuSans-66" d="M 2375 4863 
L 2375 4384 
L 1825 4384 
Q 1516 4384 1395 4259 
Q 1275 4134 1275 3809 
L 1275 3500 
L 2222 3500 
L 2222 3053 
L 1275 3053 
L 1275 0 
L 697 0 
L 697 3053 
L 147 3053 
L 147 3500 
L 697 3500 
L 697 3744 
Q 697 4328 969 4595 
Q 1241 4863 1831 4863 
L 2375 4863 
z
" transform="scale(0.015625)"/>
       <path id="DejaVuSans-73" d="M 2834 3397 
L 2834 2853 
Q 2591 2978 2328 3040 
Q 2066 3103 1784 3103 
Q 1356 3103 1142 2972 
Q 928 2841 928 2578 
Q 928 2378 1081 2264 
Q 1234 2150 1697 2047 
L 1894 2003 
Q 2506 1872 2764 1633 
Q 3022 1394 3022 966 
Q 3022 478 2636 193 
Q 2250 -91 1575 -91 
Q 1294 -91 989 -36 
Q 684 19 347 128 
L 347 722 
Q 666 556 975 473 
Q 1284 391 1588 391 
Q 1994 391 2212 530 
Q 2431 669 2431 922 
Q 2431 1156 2273 1281 
Q 2116 1406 1581 1522 
L 1381 1569 
Q 847 1681 609 1914 
Q 372 2147 372 2553 
Q 372 3047 722 3315 
Q 1072 3584 1716 3584 
Q 2034 3584 2315 3537 
Q 2597 3491 2834 3397 
z
" transform="scale(0.015625)"/>
       <path id="DejaVuSans-69" d="M 603 3500 
L 1178 3500 
L 1178 0 
L 603 0 
L 603 3500 
z
M 603 4863 
L 1178 4863 
L 1178 4134 
L 603 4134 
L 603 4863 
z
" transform="scale(0.015625)"/>
       <path id="DejaVuSans-Oblique-43" d="M 4447 4306 
L 4319 3641 
Q 4019 3944 3683 4091 
Q 3347 4238 2956 4238 
Q 2422 4238 2017 3981 
Q 1613 3725 1319 3200 
Q 1131 2863 1032 2486 
Q 934 2109 934 1728 
Q 934 1091 1264 756 
Q 1594 422 2222 422 
Q 2656 422 3056 561 
Q 3456 700 3834 978 
L 3688 231 
Q 3316 72 2936 -9 
Q 2556 -91 2175 -91 
Q 1278 -91 773 396 
Q 269 884 269 1753 
Q 269 2309 461 2846 
Q 653 3384 1013 3828 
Q 1394 4300 1883 4525 
Q 2372 4750 3022 4750 
Q 3422 4750 3780 4639 
Q 4138 4528 4447 4306 
z
" transform="scale(0.015625)"/>
      </defs>
      <use xlink:href="#DejaVuSans-4e" transform="translate(0 0.015625)"/>
      <use xlink:href="#DejaVuSans-75" transform="translate(74.804688 0.015625)"/>
      <use xlink:href="#DejaVuSans-6d" transform="translate(138.183594 0.015625)"/>
      <use xlink:href="#DejaVuSans-62" transform="translate(235.595703 0.015625)"/>
      <use xlink:href="#DejaVuSans-65" transform="translate(299.072266 0.015625)"/>
      <use xlink:href="#DejaVuSans-72" transform="translate(360.595703 0.015625)"/>
      <use xlink:href="#DejaVuSans-20" transform="translate(401.708984 0.015625)"/>
      <use xlink:href="#DejaVuSans-6f" transform="translate(433.496094 0.015625)"/>
      <use xlink:href="#DejaVuSans-66" transform="translate(494.677734 0.015625)"/>
      <use xlink:href="#DejaVuSans-20" transform="translate(529.882812 0.015625)"/>
      <use xlink:href="#DejaVuSans-63" transform="translate(561.669922 0.015625)"/>
      <use xlink:href="#DejaVuSans-65" transform="translate(616.650391 0.015625)"/>
      <use xlink:href="#DejaVuSans-6c" transform="translate(678.173828 0.015625)"/>
      <use xlink:href="#DejaVuSans-6c" transform="translate(705.957031 0.015625)"/>
      <use xlink:href="#DejaVuSans-73" transform="translate(733.740234 0.015625)"/>
      <use xlink:href="#DejaVuSans-20" transform="translate(785.839844 0.015625)"/>
      <use xlink:href="#DejaVuSans-69" transform="translate(817.626953 0.015625)"/>
      <use xlink:href="#DejaVuSans-6e" transform="translate(845.410156 0.015625)"/>
      <use xlink:href="#DejaVuSans-20" transform="translate(908.789062 0.015625)"/>
      <use xlink:href="#DejaVuSans-73" transform="translate(940.576172 0.015625)"/>
      <use xlink:href="#DejaVuSans-74" transform="translate(992.675781 0.015625)"/>
      <use xlink:href="#DejaVuSans-61" transform="translate(1031.884766 0.015625)"/>
      <use xlink:href="#DejaVuSans-74" transform="translate(1093.164062 0.015625)"/>
      <use xlink:href="#DejaVuSans-65" transform="translate(1132.373047 0.015625)"/>
      <use xlink:href="#DejaVuSans-20" transform="translate(1193.896484 0.015625)"/>
      <use xlink:href="#DejaVuSans-Oblique-43" transform="translate(1225.683594 0.015625)"/>
     </g>
    </g>
   </g>
   <g id="matplotlib.axis_3">
    <g id="ytick_7">
     <g id="line2d_14">
      <defs>
       <path id="ma09a8aa705" d="M 0 0 
L -3.5 0 
" style="stroke: #000000; stroke-width: 0.8"/>
      </defs>
      <g>
       <use xlink:href="#ma09a8aa705" x="57.6" y="307.584" style="stroke: #000000; stroke-width: 0.8"/>
      </g>
     </g>
     <g id="text_16">
      <!-- 0.00 -->
      <g transform="translate(28.334375 311.383219) scale(0.1 -0.1)">
       <defs>
        <path id="DejaVuSans-2e" d="M 684 794 
L 1344 794 
L 1344 0 
L 684 0 
L 684 794 
z
" transform="scale(0.015625)"/>
       </defs>
       <use xlink:href="#DejaVuSans-30"/>
       <use xlink:href="#DejaVuSans-2e" transform="translate(63.623047 0)"/>
       <use xlink:href="#DejaVuSans-30" transform="translate(95.410156 0)"/>
       <use xlink:href="#DejaVuSans-30" transform="translate(159.033203 0)"/>
      </g>
     </g>
    </g>
    <g id="ytick_8">
     <g id="line2d_15">
      <g>
       <use xlink:href="#ma09a8aa705" x="57.6" y="251.905931" style="stroke: #000000; stroke-width: 0.8"/>
      </g>
     </g>
     <g id="text_17">
      <!-- 0.01 -->
      <g transform="translate(28.334375 255.70515) scale(0.1 -0.1)">
       <use xlink:href="#DejaVuSans-30"/>
       <use xlink:href="#DejaVuSans-2e" transform="translate(63.623047 0)"/>
       <use xlink:href="#DejaVuSans-30" transform="translate(95.410156 0)"/>
       <use xlink:href="#DejaVuSans-31" transform="translate(159.033203 0)"/>
      </g>
     </g>
    </g>
    <g id="ytick_9">
     <g id="line2d_16">
      <g>
       <use xlink:href="#ma09a8aa705" x="57.6" y="196.227862" style="stroke: #000000; stroke-width: 0.8"/>
      </g>
     </g>
     <g id="text_18">
      <!-- 0.02 -->
      <g transform="translate(28.334375 200.027081) scale(0.1 -0.1)">
       <use xlink:href="#DejaVuSans-30"/>
       <use xlink:href="#DejaVuSans-2e" transform="translate(63.623047 0)"/>
       <use xlink:href="#DejaVuSans-30" transform="translate(95.410156 0)"/>
       <use xlink:href="#DejaVuSans-32" transform="translate(159.033203 0)"/>
      </g>
     </g>
    </g>
    <g id="ytick_10">
     <g id="line2d_17">
      <g>
       <use xlink:href="#ma09a8aa705" x="57.6" y="140.549793" style="stroke: #000000; stroke-width: 0.8"/>
      </g>
     </g>
     <g id="text_19">
      <!-- 0.03 -->
      <g transform="translate(28.334375 144.349012) scale(0.1 -0.1)">
       <use xlink:href="#DejaVuSans-30"/>
       <use xlink:href="#DejaVuSans-2e" transform="translate(63.623047 0)"/>
       <use xlink:href="#DejaVuSans-30" transform="translate(95.410156 0)"/>
       <use xlink:href="#DejaVuSans-33" transform="translate(159.033203 0)"/>
      </g>
     </g>
    </g>
    <g id="ytick_11">
     <g id="line2d_18">
      <g>
       <use xlink:href="#ma09a8aa705" x="57.6" y="84.871724" style="stroke: #000000; stroke-width: 0.8"/>
      </g>
     </g>
     <g id="text_20">
      <!-- 0.04 -->
      <g transform="translate(28.334375 88.670943) scale(0.1 -0.1)">
       <use xlink:href="#DejaVuSans-30"/>
       <use xlink:href="#DejaVuSans-2e" transform="translate(63.623047 0)"/>
       <use xlink:href="#DejaVuSans-30" transform="translate(95.410156 0)"/>
       <use xlink:href="#DejaVuSans-34" transform="translate(159.033203 0)"/>
      </g>
     </g>
    </g>
    <g id="text_21">
     <!-- Probability density (Approximations) -->
     <g transform="translate(22.254687 265.449094) rotate(-90) scale(0.1 -0.1)">
      <defs>
       <path id="DejaVuSans-50" d="M 1259 4147 
L 1259 2394 
L 2053 2394 
Q 2494 2394 2734 2622 
Q 2975 2850 2975 3272 
Q 2975 3691 2734 3919 
Q 2494 4147 2053 4147 
L 1259 4147 
z
M 628 4666 
L 2053 4666 
Q 2838 4666 3239 4311 
Q 3641 3956 3641 3272 
Q 3641 2581 3239 2228 
Q 2838 1875 2053 1875 
L 1259 1875 
L 1259 0 
L 628 0 
L 628 4666 
z
" transform="scale(0.015625)"/>
       <path id="DejaVuSans-64" d="M 2906 2969 
L 2906 4863 
L 3481 4863 
L 3481 0 
L 2906 0 
L 2906 525 
Q 2725 213 2448 61 
Q 2172 -91 1784 -91 
Q 1150 -91 751 415 
Q 353 922 353 1747 
Q 353 2572 751 3078 
Q 1150 3584 1784 3584 
Q 2172 3584 2448 3432 
Q 2725 3281 2906 2969 
z
M 947 1747 
Q 947 1113 1208 752 
Q 1469 391 1925 391 
Q 2381 391 2643 752 
Q 2906 1113 2906 1747 
Q 2906 2381 2643 2742 
Q 2381 3103 1925 3103 
Q 1469 3103 1208 2742 
Q 947 2381 947 1747 
z
" transform="scale(0.015625)"/>
       <path id="DejaVuSans-41" d="M 2188 4044 
L 1331 1722 
L 3047 1722 
L 2188 4044 
z
M 1831 4666 
L 2547 4666 
L 4325 0 
L 3669 0 
L 3244 1197 
L 1141 1197 
L 716 0 
L 50 0 
L 1831 4666 
z
" transform="scale(0.015625)"/>
       <path id="DejaVuSans-70" d="M 1159 525 
L 1159 -1331 
L 581 -1331 
L 581 3500 
L 1159 3500 
L 1159 2969 
Q 1341 3281 1617 3432 
Q 1894 3584 2278 3584 
Q 2916 3584 3314 3078 
Q 3713 2572 3713 1747 
Q 3713 922 3314 415 
Q 2916 -91 2278 -91 
Q 1894 -91 1617 61 
Q 1341 213 1159 525 
z
M 3116 1747 
Q 3116 2381 2855 2742 
Q 2594 3103 2138 3103 
Q 1681 3103 1420 2742 
Q 1159 2381 1159 1747 
Q 1159 1113 1420 752 
Q 1681 391 2138 391 
Q 2594 391 2855 752 
Q 3116 1113 3116 1747 
z
" transform="scale(0.015625)"/>
       <path id="DejaVuSans-78" d="M 3513 3500 
L 2247 1797 
L 3578 0 
L 2900 0 
L 1881 1375 
L 863 0 
L 184 0 
L 1544 1831 
L 300 3500 
L 978 3500 
L 1906 2253 
L 2834 3500 
L 3513 3500 
z
" transform="scale(0.015625)"/>
      </defs>
      <use xlink:href="#DejaVuSans-50"/>
      <use xlink:href="#DejaVuSans-72" transform="translate(58.552734 0)"/>
      <use xlink:href="#DejaVuSans-6f" transform="translate(97.416016 0)"/>
      <use xlink:href="#DejaVuSans-62" transform="translate(158.597656 0)"/>
      <use xlink:href="#DejaVuSans-61" transform="translate(222.074219 0)"/>
      <use xlink:href="#DejaVuSans-62" transform="translate(283.353516 0)"/>
      <use xlink:href="#DejaVuSans-69" transform="translate(346.830078 0)"/>
      <use xlink:href="#DejaVuSans-6c" transform="translate(374.613281 0)"/>
      <use xlink:href="#DejaVuSans-69" transform="translate(402.396484 0)"/>
      <use xlink:href="#DejaVuSans-74" transform="translate(430.179688 0)"/>
      <use xlink:href="#DejaVuSans-79" transform="translate(469.388672 0)"/>
      <use xlink:href="#DejaVuSans-20" transform="translate(528.568359 0)"/>
      <use xlink:href="#DejaVuSans-64" transform="translate(560.355469 0)"/>
      <use xlink:href="#DejaVuSans-65" transform="translate(623.832031 0)"/>
      <use xlink:href="#DejaVuSans-6e" transform="translate(685.355469 0)"/>
      <use xlink:href="#DejaVuSans-73" transform="translate(748.734375 0)"/>
      <use xlink:href="#DejaVuSans-69" transform="translate(800.833984 0)"/>
      <use xlink:href="#DejaVuSans-74" transform="translate(828.617188 0)"/>
      <use xlink:href="#DejaVuSans-79" transform="translate(867.826172 0)"/>
      <use xlink:href="#DejaVuSans-20" transform="translate(927.005859 0)"/>
      <use xlink:href="#DejaVuSans-28" transform="translate(958.792969 0)"/>
      <use xlink:href="#DejaVuSans-41" transform="translate(997.806641 0)"/>
      <use xlink:href="#DejaVuSans-70" transform="translate(1066.214844 0)"/>
      <use xlink:href="#DejaVuSans-70" transform="translate(1129.691406 0)"/>
      <use xlink:href="#DejaVuSans-72" transform="translate(1193.167969 0)"/>
      <use xlink:href="#DejaVuSans-6f" transform="translate(1232.03125 0)"/>
      <use xlink:href="#DejaVuSans-78" transform="translate(1290.087891 0)"/>
      <use xlink:href="#DejaVuSans-69" transform="translate(1349.267578 0)"/>
      <use xlink:href="#DejaVuSans-6d" transform="translate(1377.050781 0)"/>
      <use xlink:href="#DejaVuSans-61" transform="translate(1474.462891 0)"/>
      <use xlink:href="#DejaVuSans-74" transform="translate(1535.742188 0)"/>
      <use xlink:href="#DejaVuSans-69" transform="translate(1574.951172 0)"/>
      <use xlink:href="#DejaVuSans-6f" transform="translate(1602.734375 0)"/>
      <use xlink:href="#DejaVuSans-6e" transform="translate(1663.916016 0)"/>
      <use xlink:href="#DejaVuSans-73" transform="translate(1727.294922 0)"/>
      <use xlink:href="#DejaVuSans-29" transform="translate(1779.394531 0)"/>
     </g>
    </g>
   </g>
   <g id="line2d_19">
    <path d="M 57.6 307.565058 
L 81.550991 307.410464 
L 93.347748 307.120195 
L 101.56973 306.701703 
L 108.004324 306.159367 
L 113.366486 305.494312 
L 118.013694 304.705889 
L 122.303423 303.754169 
L 126.235676 302.648626 
L 129.81045 301.411431 
L 133.027748 300.07695 
L 136.245045 298.502191 
L 139.104865 296.874846 
L 141.964685 295.008638 
L 144.824505 292.878887 
L 147.684324 290.460253 
L 150.544144 287.727086 
L 153.403964 284.653831 
L 156.263784 281.215509 
L 159.123604 277.388247 
L 161.983423 273.149881 
L 164.843243 268.480591 
L 167.703063 263.363585 
L 170.562883 257.785811 
L 173.422703 251.738675 
L 176.64 244.370576 
L 179.857297 236.408326 
L 183.074595 227.866506 
L 186.649369 217.728014 
L 190.581622 205.851486 
L 194.871351 192.144404 
L 199.876036 175.384264 
L 208.455495 145.697323 
L 215.247568 122.54561 
L 219.537297 108.680022 
L 223.112072 97.848926 
L 226.329369 88.824015 
L 229.189189 81.483941 
L 231.691532 75.657176 
L 233.836396 71.147155 
L 235.981261 67.116156 
L 238.126126 63.591463 
L 239.913514 61.058483 
L 241.700901 58.906055 
L 243.488288 57.144565 
L 244.918198 56.022653 
L 246.348108 55.159943 
L 247.778018 54.559132 
L 249.207928 54.2221 
L 250.637838 54.149904 
L 252.067748 54.342771 
L 253.497658 54.800096 
L 254.927568 55.520445 
L 256.357477 56.501565 
L 257.787387 57.740393 
L 259.217297 59.233073 
L 261.004685 61.448779 
L 262.792072 64.043161 
L 264.579459 67.003797 
L 266.724324 71.020104 
L 268.869189 75.516288 
L 271.371532 81.328097 
L 273.873874 87.700003 
L 276.733694 95.596072 
L 279.950991 105.155856 
L 283.525766 116.463986 
L 288.172973 131.950824 
L 295.68 157.896843 
L 303.544505 184.83314 
L 308.549189 201.160092 
L 312.838919 214.370492 
L 316.413694 224.715756 
L 319.988468 234.393008 
L 323.205766 242.497313 
L 326.423063 250.00999 
L 329.64036 256.924539 
L 332.50018 262.571038 
L 335.36 267.755206 
L 338.21982 272.489484 
L 341.07964 276.790156 
L 343.939459 280.67664 
L 346.799279 284.170798 
L 349.659099 287.296288 
L 352.518919 290.077962 
L 355.378739 292.54132 
L 358.238559 294.712028 
L 361.098378 296.615493 
L 363.958198 298.276512 
L 367.175495 299.885065 
L 370.392793 301.249264 
L 373.967568 302.515058 
L 377.542342 303.554359 
L 381.474595 304.476792 
L 385.764324 305.265046 
L 390.769009 305.955208 
L 396.488649 306.513206 
L 403.280721 306.94728 
L 411.86018 307.264752 
L 414.72 307.332491 
L 414.72 307.332491 
" clip-path="url(#p939f215f48)" style="fill: none; stroke: #ff7f0e; stroke-width: 1.5; stroke-linecap: square"/>
   </g>
   <g id="patch_28">
    <path d="M 57.6 307.584 
L 57.6 41.472 
" style="fill: none; stroke: #000000; stroke-width: 0.8; stroke-linejoin: miter; stroke-linecap: square"/>
   </g>
   <g id="patch_29">
    <path d="M 414.72 307.584 
L 414.72 41.472 
" style="fill: none; stroke: #000000; stroke-width: 0.8; stroke-linejoin: miter; stroke-linecap: square"/>
   </g>
   <g id="patch_30">
    <path d="M 57.6 307.584 
L 414.72 307.584 
" style="fill: none; stroke: #000000; stroke-width: 0.8; stroke-linejoin: miter; stroke-linecap: square"/>
   </g>
   <g id="patch_31">
    <path d="M 57.6 41.472 
L 414.72 41.472 
" style="fill: none; stroke: #000000; stroke-width: 0.8; stroke-linejoin: miter; stroke-linecap: square"/>
   </g>
  </g>
  <g id="legend_1">
   <g id="patch_32">
    <path d="M 361.345312 37.35625 
L 453.8 37.35625 
Q 455.8 37.35625 455.8 35.35625 
L 455.8 7 
Q 455.8 5 453.8 5 
L 361.345312 5 
Q 359.345312 5 359.345312 7 
L 359.345312 35.35625 
Q 359.345312 37.35625 361.345312 37.35625 
z
" style="fill: #ffffff; opacity: 0.8; stroke: #cccccc; stroke-linejoin: miter"/>
   </g>
   <g id="line2d_20">
    <path d="M 363.345312 13.098437 
L 373.345312 13.098437 
L 383.345312 13.098437 
" style="fill: none; stroke: #ff7f0e; stroke-width: 1.5; stroke-linecap: square"/>
   </g>
   <g id="text_22">
    <!-- Single cell -->
    <g transform="translate(391.345312 16.598437) scale(0.1 -0.1)">
     <defs>
      <path id="DejaVuSans-53" d="M 3425 4513 
L 3425 3897 
Q 3066 4069 2747 4153 
Q 2428 4238 2131 4238 
Q 1616 4238 1336 4038 
Q 1056 3838 1056 3469 
Q 1056 3159 1242 3001 
Q 1428 2844 1947 2747 
L 2328 2669 
Q 3034 2534 3370 2195 
Q 3706 1856 3706 1288 
Q 3706 609 3251 259 
Q 2797 -91 1919 -91 
Q 1588 -91 1214 -16 
Q 841 59 441 206 
L 441 856 
Q 825 641 1194 531 
Q 1563 422 1919 422 
Q 2459 422 2753 634 
Q 3047 847 3047 1241 
Q 3047 1584 2836 1778 
Q 2625 1972 2144 2069 
L 1759 2144 
Q 1053 2284 737 2584 
Q 422 2884 422 3419 
Q 422 4038 858 4394 
Q 1294 4750 2059 4750 
Q 2388 4750 2728 4690 
Q 3069 4631 3425 4513 
z
" transform="scale(0.015625)"/>
      <path id="DejaVuSans-67" d="M 2906 1791 
Q 2906 2416 2648 2759 
Q 2391 3103 1925 3103 
Q 1463 3103 1205 2759 
Q 947 2416 947 1791 
Q 947 1169 1205 825 
Q 1463 481 1925 481 
Q 2391 481 2648 825 
Q 2906 1169 2906 1791 
z
M 3481 434 
Q 3481 -459 3084 -895 
Q 2688 -1331 1869 -1331 
Q 1566 -1331 1297 -1286 
Q 1028 -1241 775 -1147 
L 775 -588 
Q 1028 -725 1275 -790 
Q 1522 -856 1778 -856 
Q 2344 -856 2625 -561 
Q 2906 -266 2906 331 
L 2906 616 
Q 2728 306 2450 153 
Q 2172 0 1784 0 
Q 1141 0 747 490 
Q 353 981 353 1791 
Q 353 2603 747 3093 
Q 1141 3584 1784 3584 
Q 2172 3584 2450 3431 
Q 2728 3278 2906 2969 
L 2906 3500 
L 3481 3500 
L 3481 434 
z
" transform="scale(0.015625)"/>
     </defs>
     <use xlink:href="#DejaVuSans-53"/>
     <use xlink:href="#DejaVuSans-69" transform="translate(63.476562 0)"/>
     <use xlink:href="#DejaVuSans-6e" transform="translate(91.259766 0)"/>
     <use xlink:href="#DejaVuSans-67" transform="translate(154.638672 0)"/>
     <use xlink:href="#DejaVuSans-6c" transform="translate(218.115234 0)"/>
     <use xlink:href="#DejaVuSans-65" transform="translate(245.898438 0)"/>
     <use xlink:href="#DejaVuSans-20" transform="translate(307.421875 0)"/>
     <use xlink:href="#DejaVuSans-63" transform="translate(339.208984 0)"/>
     <use xlink:href="#DejaVuSans-65" transform="translate(394.189453 0)"/>
     <use xlink:href="#DejaVuSans-6c" transform="translate(455.712891 0)"/>
     <use xlink:href="#DejaVuSans-6c" transform="translate(483.496094 0)"/>
    </g>
   </g>
   <g id="patch_33">
    <path d="M 363.345312 31.276563 
L 383.345312 31.276563 
L 383.345312 24.276563 
L 363.345312 24.276563 
z
" style="fill: #1f77b4"/>
   </g>
   <g id="text_23">
    <!-- Monte Carlo -->
    <g transform="translate(391.345312 31.276563) scale(0.1 -0.1)">
     <use xlink:href="#DejaVuSans-4d"/>
     <use xlink:href="#DejaVuSans-6f" transform="translate(86.279297 0)"/>
     <use xlink:href="#DejaVuSans-6e" transform="translate(147.460938 0)"/>
     <use xlink:href="#DejaVuSans-74" transform="translate(210.839844 0)"/>
     <use xlink:href="#DejaVuSans-65" transform="translate(250.048828 0)"/>
     <use xlink:href="#DejaVuSans-20" transform="translate(311.572266 0)"/>
     <use xlink:href="#DejaVuSans-43" transform="translate(343.359375 0)"/>
     <use xlink:href="#DejaVuSans-61" transform="translate(413.183594 0)"/>
     <use xlink:href="#DejaVuSans-72" transform="translate(474.462891 0)"/>
     <use xlink:href="#DejaVuSans-6c" transform="translate(515.576172 0)"/>
     <use xlink:href="#DejaVuSans-6f" transform="translate(543.359375 0)"/>
    </g>
   </g>
  </g>
 </g>
 <defs>
  <clipPath id="p939f215f48">
   <rect x="57.6" y="41.472" width="357.12" height="266.112"/>
  </clipPath>
 </defs>
</svg>
